<?xml version="1.0" encoding="utf-8"?>
<!-- Generator: Adobe Illustrator 19.2.1, SVG Export Plug-In . SVG Version: 6.00 Build 0)  -->
<svg version="1.1" id="layer" xmlns="http://www.w3.org/2000/svg" xmlns:xlink="http://www.w3.org/1999/xlink" x="0px" y="0px"
	 viewBox="0 0 652 652" style="enable-background:new 0 0 652 652;" xml:space="preserve">
<style type="text/css">
	.st0{fill:#EC6950;}
</style>
<path class="st0" d="M43,363.1c-23.2-23.2-23.2-60.9,0-84.1l0.7-0.7c23.2-23.2,60.9-23.2,84.1,0l4.7,4.7l-13.6,13.6l-4.7-4.7
	c-15.7-15.7-41.2-15.7-56.9,0l-0.7,0.7c-15.7,15.7-15.7,41.2,0,56.9l0.8,0.8c15.7,15.7,41.2,15.7,56.9,0l54.4-54.4l13.6,13.6
	l-54.4,54.4c-11.6,11.6-26.8,17.4-42,17.4c-15.2,0-30.5-5.8-42-17.4L43,363.1z M232.2,278.3c-11.6-11.6-26.8-17.4-42-17.4
	c-15.2,0-30.5,5.8-42,17.4l-54.4,54.4l13.6,13.6l54.4-54.4c15.7-15.7,41.2-15.7,56.9,0l0.8,0.8c15.7,15.7,15.7,41.2,0,56.9l-0.7,0.7
	c-15.7,15.7-41.2,15.7-56.9,0l-4.7-4.7l-13.6,13.6l4.7,4.7c23.2,23.2,60.9,23.2,84.1,0l0.7-0.7c23.2-23.2,23.2-60.9,0-84.1
	L232.2,278.3z"/>
<path d="M512.2,306.4L481,381.1h-11l8.5-21.1l-22.1-53.6h11.1l16.6,40.6l16.9-40.6H512.2z M279.3,321.1c0,23,18.3,41.6,41.3,41.6
	c12.5,0,23.4-5.3,30.6-13.8l-7.8-6.6c-5.4,6.4-13.7,10.5-22.8,10.5c-17.1,0-30.6-14.4-30.6-31.7c0-17.5,13.4-31.7,30.6-31.7
	c9.1,0,17.3,4.1,22.8,10.5l7.8-6.6c-7.2-8.5-18.1-13.8-30.6-13.8C297.6,279.4,279.3,298.1,279.3,321.1 M393.8,307.4
	c-1.7-1.1-5.7-2.1-9.6-2.1c-7.3,0-12.6,4-15.5,13.7v-12.5h-10.4v55.1h10.4v-20.2c0-14.5,4.4-26.2,15.3-26.2c2.1,0,5.1,0.5,8,1.9
	L393.8,307.4 M440.7,306.4v8.6c-3.7-6.5-11.4-9.8-19.7-9.8c-15.1,0-27.5,11.2-27.5,28.7c0,17.3,12.5,28.8,27.6,28.8
	c7.9,0,15.9-3.5,19.6-9.9v8.7H451v-55.1H440.7z M440.7,333.8c0,11.8-8.8,19.2-18.8,19.2c-10,0-18.1-8.3-18.1-19.2
	c0-11.1,8-18.9,18.1-18.9C431.1,314.9,440.7,321.9,440.7,333.8 M511.4,333.8c0,17.5,13.1,28.9,28.8,28.9c15.7,0,28.9-11.4,28.9-28.9
	c0-17.5-13.2-28.5-28.9-28.5C524.5,305.3,511.4,316.4,511.4,333.8 M558.8,333.8c0,11.4-8.5,19.2-18.6,19.2c-10,0-18.4-7.8-18.4-19.2
	c0-11.3,8.4-18.9,18.4-18.9C550.4,314.9,558.8,322.5,558.8,333.8 M625.6,329.7c0.1-15.5-8.5-24.4-22.2-24.4c-6,0-15,2.8-18.3,9.6
	v-8.4h-10.3v55.1h10.3v-29.8c0-11.9,9.2-16.3,16.9-16.3c7.7,0,13.3,5.7,13.3,14.9v31.3h10.3V329.7"/>
</svg>
